<svg width="28" height="29" viewBox="0 0 28 29" fill="none" xmlns="http://www.w3.org/2000/svg">
<g clip-path="url(#clip0_309_6)">
<path d="M27.8992 28.6181C28.0347 28.3814 28.0316 28.091 27.8929 27.8574L15.8429 7.4457L14.8781 5.75078L17.5044 1.13312C17.7093 0.770149 17.5832 0.306174 17.2206 0.101015C16.8581 -0.1073 16.3946 0.0189516 16.1897 0.385081L14.0079 4.21997L12.1762 1.00056C11.9681 0.637585 11.5078 0.508177 11.1452 0.716492C10.7826 0.924807 10.6565 1.38563 10.8614 1.7486L13.1378 5.75078L12.5923 6.71029L0.10409 27.8574C-0.0346328 28.091 -0.0377856 28.3814 0.0977847 28.6181C0.233355 28.8548 0.482426 29 0.753567 29H27.2402C27.5114 29 27.7636 28.8548 27.896 28.6181H27.8992ZM8.91616 27.4755L13.9985 18.8683L19.0808 27.4755H8.91616ZM8.04914 17.3786L9.71697 14.5537L13.245 8.58197V17.1734L13.122 17.3817L7.1569 27.4882H2.08089L8.04599 17.3817L8.04914 17.3786ZM20.8432 27.485L14.8781 17.3786L14.7551 17.1702V8.57881L18.28 14.5505L19.9478 17.3754L25.9129 27.4818H20.84L20.8432 27.485Z" fill="#272525"/>
</g>
<defs>
<clipPath id="clip0_309_6">
<rect width="28" height="29" fill="white"/>
</clipPath>
</defs>
</svg>
