<svg width="35" height="32" viewBox="0 0 35 32" fill="none" xmlns="http://www.w3.org/2000/svg">
<path d="M10.4 9.86499H23.92C24.18 9.86499 24.3799 9.65497 24.3799 9.40497C24.3799 9.15497 24.17 8.94501 23.92 8.94501H10.4C10.14 8.94501 9.93994 9.15497 9.93994 9.40497C9.93994 9.65497 10.15 9.86499 10.4 9.86499Z" fill="#272525"/>
<path d="M24.39 13.465C24.39 13.205 24.1799 13.005 23.9299 13.005H10.41C10.15 13.005 9.94995 13.215 9.94995 13.465C9.94995 13.715 10.16 13.925 10.41 13.925H23.9299C24.1899 13.925 24.39 13.715 24.39 13.465Z" fill="#272525"/>
<path d="M34.48 12.3249L28.77 8.15496V7.15496C28.77 5.14496 27.07 3.505 24.98 3.505H22.4L17.79 0.135C17.55 -0.045 17.22 -0.045 16.97 0.135L12.36 3.505H9.78003C7.69003 3.505 5.98999 5.14496 5.98999 7.15496V8.15496L0.280029 12.3249C0.100029 12.4549 0 12.665 0 12.885C0 12.925 9.76585e-06 12.965 0.0100098 12.995C0.0100098 13.025 0 13.055 0 13.085V30.335C0 30.435 0.0300073 30.535 0.0700073 30.625C7.32392e-06 30.785 -0.0199609 30.965 0.0400391 31.135C0.140039 31.415 0.400012 31.605 0.700012 31.605H34.07C34.37 31.605 34.63 31.415 34.73 31.135C34.79 30.965 34.77 30.785 34.7 30.635C34.74 30.545 34.77 30.455 34.77 30.345V13.095C34.77 13.095 34.77 13.035 34.76 13.005C34.76 12.965 34.77 12.925 34.77 12.885C34.77 12.665 34.66 12.465 34.49 12.335L34.48 12.3249ZM28.77 9.87499L32.91 12.905L28.91 15.985L28.76 16.095V9.885L28.77 9.87499ZM17.38 1.55498L20.05 3.505H14.72L17.39 1.55498H17.38ZM7.38 7.15496C7.38 5.90496 8.46004 4.89495 9.79004 4.89495H24.98C26.31 4.89495 27.39 5.90496 27.39 7.15496V17.095L21.93 21.055C21.84 21.075 21.75 21.105 21.67 21.165L17.43 24.365L12.99 21.155L7.39001 17.085V7.14495L7.38 7.15496ZM5.98999 9.87499V15.9549L1.86005 12.8949L5.98999 9.87499ZM1.38 14.4549L11.39 21.725L1.38 28.995V14.465V14.4549ZM2.72003 30.225L12.59 22.585L17.02 25.795C17.27 25.975 17.6 25.965 17.84 25.795L22.07 22.595L32.02 30.225H2.72003ZM33.37 28.985L23.36 21.715L33.37 14.445V28.975V28.985Z" fill="#272525"/>
</svg>
