<svg width="25" height="25" viewBox="0 0 25 25" fill="none" xmlns="http://www.w3.org/2000/svg">
<g clip-path="url(#clip0_558_21)">
<path d="M25 11.6262V13.4335C24.5613 16.9325 23.1205 20.0307 20.3367 22.2743C15.5292 26.1495 8.33986 25.8693 3.87511 21.5786C1.68337 19.4728 0.303684 16.6186 0.0446106 13.5877C-0.0989798 11.9083 0.107546 10.2142 0.627526 8.61182C0.873158 7.85501 1.19028 7.12266 1.57583 6.42703C1.9345 5.78095 2.4722 5.22114 2.80399 4.57078C2.65429 4.15964 2.02005 3.74789 1.71087 3.4377C1.29354 3.01983 0.848106 2.61603 0.452774 2.17614C-0.29634 1.34101 0.0311681 0.573181 0.85055 -9.0089e-05H1.48479C1.7903 0.0873995 2.03471 0.263602 2.25651 0.489362C2.95247 1.19662 3.65698 1.89531 4.35904 2.59584C4.42626 2.66314 4.48247 2.75002 4.5949 2.76226C4.72138 2.72555 4.81548 2.63194 4.91752 2.55363C6.46768 1.36671 8.20421 0.598877 10.1167 0.216493C10.5707 0.125944 11.0345 0.102695 11.4854 -0.000701904C12.1361 -0.000701904 12.7863 -0.000701904 13.437 -0.000701904C13.4841 0.00969896 13.5311 0.0274416 13.5788 0.0298889C14.0175 0.0506906 14.4513 0.117378 14.8809 0.202421C17.3201 0.684531 19.4452 1.77723 21.2257 3.51968C23.2195 5.47076 24.4348 7.8287 24.8754 10.5874C24.9303 10.9324 24.9444 11.2812 24.9994 11.6262H25ZM5.17842 3.37285C5.34279 3.61574 5.91226 4.17127 6.0974 4.26793C8.34719 2.57504 10.8823 1.82863 13.69 2.14249C16.505 2.45696 18.8195 3.75462 20.6043 5.94492C23.8116 9.8795 23.745 15.7009 20.1479 19.5835C16.8722 23.1192 11.6663 23.961 7.49237 21.641C5.24014 20.3893 3.61604 18.5489 2.74533 16.1157C1.45119 12.4981 2.07687 9.14104 4.2735 6.06545C3.96493 5.76627 3.66981 5.47994 3.37652 5.19606C0.297574 8.74765 -0.697171 15.6936 4.09997 20.6897C8.36308 25.1302 15.6734 25.6215 20.5426 21.069C25.2817 16.6376 25.5713 9.03581 20.8548 4.26059C16.3052 -0.347601 9.38837 -0.12796 5.17842 3.37285ZM12.515 7.96269C12.4209 7.87275 12.3292 7.87642 12.2425 7.88437C9.96212 8.09056 7.9873 9.49284 7.2889 11.7315C6.64182 13.8067 7.34389 16.1249 8.99976 17.5211C9.85275 18.2406 10.9349 18.6933 12.0469 18.7826C12.3677 18.8083 13.2293 18.6915 13.1058 19.2721C13.002 19.7609 12.1948 19.589 11.8551 19.5511C9.73971 19.3161 7.8767 18.0222 6.92717 16.1157C6.42247 15.102 6.20739 13.9811 6.2911 12.8517C6.36564 11.8447 7.16242 10.5005 6.54345 9.53995C6.22388 9.82811 5.69963 10.9918 5.66663 11.4739C6.28988 12.1071 6.34181 13.0591 5.42039 13.6856C5.36051 13.9224 5.55909 15.198 4.83747 14.7086C4.56496 14.5238 4.73666 14.1787 4.62789 13.9413C4.52585 13.7186 4.29977 13.707 4.10486 13.5749C3.6136 13.2414 3.38996 12.6033 3.59649 12.0386C3.85189 11.3399 4.40487 11.447 4.91263 11.1093C5.19676 10.1762 5.65197 9.29094 6.2416 8.48456C5.94281 7.73448 5.46805 7.15203 4.89308 6.63627C3.525 8.29735 2.85287 10.525 2.87976 12.6614C2.92436 16.2528 5.08677 19.6013 8.30075 21.1767C10.0593 22.0387 12.0976 22.3587 14.0315 22.0369C15.0293 21.8711 15.9801 21.5358 16.8807 21.0782C17.4355 20.7961 18.2641 20.4364 18.6167 19.887C18.1156 20.0503 17.6745 19.98 17.3115 19.5792C17.116 19.9273 17.0976 20.2853 16.6962 20.478C16.497 20.5734 16.2929 20.5465 16.0827 20.5722C15.7974 20.6065 15.5573 20.7129 15.2847 20.8041C14.1287 21.192 12.8694 21.3461 11.6565 21.2195C9.44031 20.9882 7.35672 19.7695 6.07174 17.9469C5.77906 17.5321 5.51632 17.0867 5.31041 16.6217C5.21264 16.4002 5.04705 16.1298 5.22914 15.9022C5.41061 15.6752 5.66052 15.7535 5.83527 15.9236C6.02897 16.1121 6.13101 16.5385 6.26238 16.7777C6.41452 17.0555 6.58439 17.3216 6.77381 17.5749C7.10376 18.0166 7.48442 18.4247 7.90359 18.7833C8.68386 19.4507 9.60834 19.939 10.5958 20.2173C11.2642 20.4058 11.9559 20.4847 12.6494 20.4725C13.1902 20.4627 13.9729 20.4872 14.4562 20.2021C14.2943 19.9647 14.1342 19.7371 14.1006 19.4458C14.0706 19.1883 14.3169 18.719 14.155 18.5122C13.5421 18.7031 13.0741 18.5079 12.785 17.9518C12.2761 17.871 10.5878 17.9383 10.4479 17.2403C10.2713 16.3592 12.0482 17.2384 12.4264 17.0873C12.4716 16.7722 12.5822 16.4938 12.818 16.2681C12.5296 16.1463 12.1416 16.2338 11.8325 16.1586C11.5331 16.0851 11.2722 15.9781 10.9666 15.9389C10.622 15.8949 10.4357 15.8545 10.1375 15.6642C9.86802 15.4923 9.62545 15.2873 9.29305 15.261C9.4177 15.6367 10.135 16.0907 9.84175 16.5006C9.49164 16.9894 9.00404 16.2852 8.81218 16.0185C8.14005 15.0861 7.85593 13.9701 7.97691 12.8285C8.09117 11.7529 8.57877 10.7611 9.36637 10.0184C9.73788 9.66843 10.1686 9.37904 10.6336 9.16919C11.0681 8.97279 11.7035 8.98075 12.0848 8.72378C12.1533 8.44235 12.292 8.17988 12.5144 7.96207L12.515 7.96269ZM20.0208 18.4963C22.8871 15.0842 23.1071 9.26647 19.133 5.5142C15.0886 1.69586 9.5619 2.44289 6.66932 4.87791C7.12637 5.4781 8.12417 6.1768 8.81707 6.33281C9.74582 5.8354 10.765 5.55275 11.8435 5.4414C12.4203 4.19819 14.0346 4.37317 14.403 5.66593C15.9673 6.1976 17.3182 7.03517 18.2824 8.40686C18.7773 9.11106 19.1544 9.90459 19.37 10.7391C19.4849 11.1833 19.5533 11.6397 19.576 12.0973C19.5961 12.5036 19.4379 13.1013 19.5876 13.4764C19.8827 13.5639 20.022 13.86 20.2163 14.0747C20.5609 13.9842 20.4827 12.7642 20.4809 12.4895C20.4754 11.8159 20.2872 11.1918 20.2316 10.5335C20.2029 10.1891 20.3348 9.7137 20.7846 9.96271C21.1689 10.1756 21.186 11.3118 21.2221 11.6948C21.3369 12.9068 21.1909 14.1445 20.8041 15.299C20.6025 15.8992 20.3251 16.4541 20.0104 17.0016C19.7128 17.5186 19.7623 17.9469 20.0208 18.4951V18.4963ZM10.2224 7.51423C10.0257 7.41083 9.84419 7.42551 9.67433 7.39615C7.66223 7.05169 6.43224 5.80053 5.05011 4.41232C4.29611 3.6549 3.53966 2.8993 2.78322 2.14371C2.50337 1.86411 1.22266 0.186514 0.839551 1.02348C0.681907 1.36854 1.06807 1.66038 1.27582 1.87023C1.65466 2.25323 2.0341 2.63561 2.41294 3.01861C3.1706 3.7846 3.92888 4.54998 4.69083 5.31169C5.36173 5.98224 6.08029 6.61792 6.58011 7.43408C6.80069 7.79383 6.98155 8.17682 7.12209 8.5745C7.1948 8.78068 7.25651 9.51731 7.48931 9.59195C8.29281 8.70237 9.11036 7.99511 10.2218 7.51361L10.2224 7.51423ZM16.8276 9.15634C16.8496 9.30073 16.9205 9.3717 16.9742 9.45185C17.1551 9.71921 17.5474 10.2588 17.0732 10.4644C16.6767 10.6363 16.5092 10.1603 16.3314 9.90642C16.0479 9.5014 15.7974 9.37476 15.4198 9.10189C15.1161 8.88224 15.0379 8.54269 14.6395 8.45214C14.5766 8.67545 14.6175 9.18693 14.6377 9.40718C16.2098 10.6877 16.6156 12.2754 15.8811 14.1726C16.0766 14.3819 16.1634 14.6517 16.2538 14.9154C16.8569 14.8107 17.0365 13.532 17.0958 13.0414C17.1441 12.6425 16.8575 11.469 17.207 11.2255C17.9329 10.7189 17.9109 12.3255 17.9054 12.6217C17.8999 12.9147 17.5186 14.3488 17.7294 14.4271C17.8834 13.9352 18.338 13.7664 18.7077 13.5327C19.0554 11.6122 18.3704 9.58828 17.3414 8.52556C17.2266 8.79047 17.039 8.9887 16.8282 9.15695L16.8276 9.15634ZM10.886 15.1552C10.9208 15.1405 10.9526 15.1319 10.9801 15.1148C11.2844 14.927 11.5092 14.6284 11.8264 14.443C12.0384 14.3188 12.4887 14.2344 12.5364 13.942C12.4704 13.6471 12.2064 13.045 12.5895 12.8554C13.1187 12.5935 13.0331 13.2934 13.2794 13.4721C14.2411 12.9716 13.7101 11.1405 12.6146 11.2793C12.8999 11.6538 12.8229 12.0423 12.2975 12.016C11.9559 11.9988 11.5129 11.7688 11.2214 11.6005C10.8408 11.3815 10.6899 11.1252 10.3061 11.4237C9.94379 11.7058 9.54113 11.9089 9.18001 12.1744C8.8855 12.391 8.97349 12.5323 9.02909 12.8713C9.07125 13.1307 9.12013 13.3662 9.11036 13.6305C9.10547 13.7541 9.00893 14.0674 9.07492 14.1977C9.20751 14.4583 9.49774 14.4583 9.75926 14.5581C10.1137 14.6933 10.5182 15.1136 10.8872 15.154L10.886 15.1552ZM11.3143 10.6828C11.5923 10.6014 11.8593 10.5072 12.1429 10.4632C13.4645 10.2558 14.692 11.3656 14.5582 12.711C14.488 13.4158 14.0871 13.9059 13.5256 14.2956C13.247 14.4889 12.9842 14.7312 12.6971 14.9068C12.4954 15.0298 12.0335 15.0885 11.9663 15.3638C12.5327 15.5437 13.0643 15.4507 13.5586 15.2567C13.7523 14.9992 13.6613 14.6229 13.9191 14.3684C14.2112 14.0796 14.6896 14.0252 15.0666 13.9273C15.9428 12.5403 15.2334 10.6271 14.122 10.079C13.3981 10.2666 12.7596 10.1079 12.2064 9.60296C11.4225 9.52159 10.0153 10.2393 9.6505 10.9245C10.3379 10.3494 10.6147 10.32 11.3155 10.6828H11.3143ZM16.2257 16.0478C16.2495 16.1836 16.3033 16.2552 16.3559 16.328C16.4976 16.5232 16.8019 17.1277 17.053 17.2109C17.3311 17.3033 17.6488 16.9509 17.8608 16.7942C18.2879 16.4785 18.3832 16.3721 18.0728 15.9236C17.9054 15.6813 17.6677 15.1821 17.3359 15.1742C16.9761 15.4427 16.5514 15.6789 16.2257 16.0478ZM16.64 18.347C16.5691 18.2363 16.4909 18.202 16.3986 18.1873C15.9239 18.1121 15.2835 17.7988 15.0483 18.2993C14.8839 18.6493 14.7727 19.3602 15.0709 19.5988C15.2444 19.7377 16.1854 19.879 16.395 19.7242C16.6412 19.5425 16.6632 18.6083 16.6394 18.3476L16.64 18.347ZM19.2075 18.8304C19.2338 18.7618 19.2301 18.6817 19.21 18.6015C19.1018 18.1702 19.1403 17.6893 18.6496 17.6606C18.3918 17.6453 17.7899 17.808 17.6965 18.0687C17.6323 18.2473 17.8162 19.0414 18.0166 19.1497C18.2513 19.2764 19.0829 19.0359 19.2075 18.8304ZM13.5342 7.10859C13.6014 7.17161 14.7971 7.59804 14.956 7.62068C15.0807 7.38758 15.2407 7.16855 15.4821 6.98133C15.0807 6.72621 14.6859 6.57937 14.2576 6.46741C14.081 6.75925 13.8464 6.97644 13.5348 7.1092L13.5342 7.10859ZM12.4221 7.03762C12.149 6.81859 11.9706 6.55184 11.8312 6.24593C11.2324 6.29121 10.666 6.40439 10.1289 6.64422C10.8347 6.75129 11.739 7.29397 12.4227 7.03701L12.4221 7.03762ZM18.4804 14.6578C18.5213 14.8389 18.7315 15.2353 18.8226 15.3283C19.034 15.5455 19.6951 15.1925 19.7202 14.9209C19.7428 14.6725 19.4269 14.2093 19.1629 14.1965C18.9319 14.3231 18.657 14.4112 18.481 14.6584L18.4804 14.6578ZM14.4318 15.1858C14.4519 15.3308 14.5032 15.5266 14.576 15.7156C14.6731 15.9671 15.2737 15.8319 15.4167 15.7009C15.6049 15.5278 15.564 15.324 15.4711 15.0854C15.3446 14.76 15.3055 14.7251 14.9676 14.7624C14.7024 14.7918 14.4116 14.8768 14.4318 15.1858ZM14.4531 17.3859C14.444 17.0751 14.2741 16.8395 14.0822 16.6223C13.8886 16.4033 13.2549 16.8848 13.2232 17.1136C13.3661 17.343 13.437 17.6477 13.7199 17.8166C13.9888 17.7114 14.2289 17.5829 14.4538 17.3859H14.4531ZM13.3594 9.46286C13.6509 9.46836 13.8812 9.25362 13.8892 8.96973C13.902 8.52372 13.3484 8.279 13.0282 8.58001C12.7068 8.88225 12.9079 9.4549 13.3594 9.46286ZM13.6099 5.86722C13.6026 5.58701 13.3667 5.35329 13.093 5.35513C12.6292 5.35819 12.4239 5.93513 12.7557 6.23737C13.0686 6.52247 13.6215 6.31813 13.6099 5.86722ZM5.32813 12.5036C5.33179 12.2172 5.10877 11.9866 4.82709 11.986C4.38165 11.9841 4.16657 12.5195 4.46231 12.8395C4.76476 13.1662 5.32201 12.9575 5.32813 12.5036ZM15.6935 8.06547C15.6935 8.33345 15.8805 8.53106 16.1414 8.53718C16.6211 8.54819 16.7952 7.94005 16.4078 7.68615C16.0962 7.4818 15.6941 7.68615 15.6935 8.06547ZM15.2792 17.2097C15.5432 17.2403 15.7785 17.3229 16.0626 17.3051C15.9141 16.9949 15.696 16.7857 15.5499 16.5428C15.3678 16.5177 15.2267 16.5636 15.0819 16.6437C15.1283 16.8401 15.2053 17.0157 15.2799 17.2097H15.2792ZM19.0022 16.8499C19.2106 16.8573 19.4654 16.5177 19.5949 16.0711C19.4311 16.1157 19.2845 16.1684 19.1385 16.2448C19.0932 16.4467 19.048 16.6468 19.0022 16.8499Z" fill="black"/>
<path d="M15.1173 4.15485C15.9843 4.38978 16.8074 4.81438 17.5394 5.33137C17.821 5.53021 19.2985 6.46812 18.6227 6.89456C18.195 7.16498 17.0603 5.94563 16.6656 5.70396C16.2599 5.45495 14.4965 4.9704 14.75 4.38428C14.8154 4.23316 14.9358 4.16586 15.1167 4.15485H15.1173Z" fill="black"/>
<path d="M20.3312 8.69695C20.3324 9.09708 19.9346 9.14052 19.6811 8.95575C19.4965 8.82176 19.0694 8.07412 19.0768 7.86305C19.092 7.44151 19.4635 7.35279 19.7574 7.61098C19.9676 7.79514 20.3348 8.40879 20.3312 8.69695Z" fill="black"/>
<path d="M8.65763 5.3436C8.02706 5.36257 8.22869 4.72445 8.60508 4.51765C8.92221 4.3439 9.71104 4.49257 9.29798 4.9759C9.11773 5.18698 8.87577 5.29649 8.65763 5.3436Z" fill="black"/>
<path d="M11.3559 4.25946C11.2826 4.63389 10.6948 5.26773 10.4546 4.6449C10.3245 4.30718 10.7577 3.69292 11.1408 3.89482C11.2734 3.96456 11.3504 4.07102 11.3565 4.25946H11.3559Z" fill="black"/>
<path d="M11.6913 13.7597C11.6926 14.9038 10.0678 13.184 11.249 13.2091C11.4818 13.214 11.6913 13.4746 11.6913 13.7597Z" fill="black"/>
<path d="M10.4161 12.7668C10.4222 13.1143 9.90892 13.3455 9.65962 13.0984C9.38405 12.8243 9.66878 12.3997 10.014 12.3929C10.2309 12.3886 10.4124 12.5575 10.4161 12.7661V12.7668Z" fill="black"/>
</g>
<defs>
<clipPath id="clip0_558_21">
<rect width="25" height="25" fill="white"/>
</clipPath>
</defs>
</svg>
