<svg width="20" height="30" viewBox="0 0 20 30" fill="none" xmlns="http://www.w3.org/2000/svg">
<path d="M9.64132 0C14.9661 0 19.2827 4.31662 19.2827 9.64139C19.2788 11.2762 18.8593 12.8833 18.4685 13.5973L9.64132 29.2971L1.20509 14.3114H1.20952C0.417151 12.8824 0.000954175 11.2754 3.8147e-06 9.64139C-6.64978e-05 4.31662 4.31656 0 9.64132 0ZM9.64132 4.82062C9.00826 4.82062 8.38139 4.94532 7.79652 5.18759C7.21164 5.42985 6.68022 5.78495 6.23258 6.2326C5.78494 6.68025 5.42986 7.21169 5.18761 7.79657C4.94536 8.38145 4.82068 9.00832 4.8207 9.64139C4.8207 10.9199 5.32858 12.146 6.23263 13.0501C7.13667 13.9541 8.36281 14.462 9.64132 14.462C10.9198 14.462 12.146 13.9541 13.05 13.0501C13.9541 12.146 14.4619 10.9199 14.4619 9.64139C14.4619 8.36288 13.9541 7.13674 13.05 6.23269C12.146 5.32865 10.9198 4.82062 9.64132 4.82062Z" fill="#00633c"/>
</svg>
