<svg width="35" height="34" viewBox="0 0 35 34" fill="none" xmlns="http://www.w3.org/2000/svg">
<path d="M5.83994 9.73021C5.81994 9.60021 5.70995 9.50021 5.56995 9.51021C5.34995 9.54021 5.16995 9.56022 5.03995 9.58022C4.85995 9.61022 4.74994 9.63021 4.74994 9.63021C4.61994 9.66021 4.53994 9.79021 4.55994 9.92021C4.58994 10.0302 4.68994 10.1102 4.79994 10.1102C4.81994 10.1102 4.83995 10.1102 4.84995 10.1102C4.84995 10.1102 5.13994 10.0502 5.62994 9.99022C5.62994 9.99022 5.63995 9.99022 5.64995 9.99022C5.76995 9.96022 5.85994 9.85021 5.83994 9.73021Z" fill="#272525"/>
<path d="M27.99 21.2602C27.89 21.3402 27.7999 21.4202 27.6999 21.5002C27.5899 21.5802 27.57 21.7402 27.66 21.8402C27.71 21.9002 27.78 21.9302 27.85 21.9302C27.9 21.9302 27.95 21.9102 27.99 21.8802C27.99 21.8802 27.9899 21.8802 27.9999 21.8802C28.1099 21.8002 28.2099 21.7102 28.3099 21.6202C28.6299 21.3402 28.94 21.0302 29.24 20.6902C29.33 20.5902 29.32 20.4302 29.22 20.3502C29.12 20.2602 28.96 20.2702 28.88 20.3702C28.7 20.5802 28.5099 20.7802 28.3099 20.9602C28.1999 21.0602 28.0899 21.1602 27.9799 21.2602H27.99Z" fill="#272525"/>
<path d="M14.74 12.7902C14.74 12.7902 14.85 12.8602 14.91 12.8602C14.97 12.8602 15.03 12.8402 15.08 12.7902C15.18 12.7002 15.18 12.5402 15.08 12.4402C14.92 12.2702 14.74 12.1202 14.57 11.9602C14.46 11.8702 14.35 11.7802 14.24 11.6902C14.08 11.5702 13.93 11.4402 13.76 11.3202C13.65 11.2402 13.5 11.2702 13.42 11.3802C13.34 11.4902 13.37 11.6402 13.48 11.7202C13.74 11.9002 13.99 12.1102 14.24 12.3202C14.35 12.4202 14.46 12.5202 14.57 12.6202C14.62 12.6702 14.68 12.7202 14.74 12.7702V12.7902Z" fill="#272525"/>
<path d="M16.6201 15.4702C16.6601 15.5602 16.7501 15.6102 16.8401 15.6102C16.8801 15.6102 16.9101 15.6102 16.9501 15.5902C17.0701 15.5302 17.1201 15.3802 17.0601 15.2602C16.8901 14.9102 16.6901 14.5702 16.4901 14.2502C16.3901 14.0902 16.2901 13.9302 16.1901 13.7802C16.1901 13.7702 16.1701 13.7602 16.1701 13.7602C16.0901 13.6702 15.9601 13.6502 15.8501 13.7202C15.7401 13.8002 15.7101 13.9502 15.7901 14.0602C15.9201 14.2502 16.0401 14.4502 16.1701 14.6502C16.2801 14.8402 16.3901 15.0402 16.5001 15.2402C16.5401 15.3202 16.5901 15.4002 16.6301 15.4802L16.6201 15.4702Z" fill="#272525"/>
<path d="M20.1701 21.3002C20.1701 21.3002 20.2401 21.3302 20.2801 21.3302C20.3401 21.3302 20.4101 21.3102 20.4501 21.2602C20.5401 21.1602 20.5401 21.0102 20.4501 20.9102C20.3601 20.8202 20.2601 20.7302 20.1701 20.6302C20.0601 20.5102 19.9501 20.3902 19.8401 20.2602C19.6801 20.0702 19.5201 19.8802 19.3701 19.6702C19.2901 19.5602 19.1401 19.5402 19.0301 19.6202C18.9201 19.7002 18.9001 19.8502 18.9801 19.9602C19.2601 20.3302 19.5501 20.6802 19.8401 20.9902C19.9301 21.0802 20.0101 21.1702 20.1001 21.2602C20.1201 21.2802 20.1401 21.2902 20.1701 21.3002Z" fill="#272525"/>
<path d="M18.26 18.6502C18.26 18.6502 18.31 18.6402 18.34 18.6302C18.35 18.6302 18.37 18.6302 18.38 18.6202C18.5 18.5502 18.54 18.4002 18.47 18.2902C18.42 18.2102 18.38 18.1202 18.33 18.0402C18.22 17.8402 18.11 17.6302 18 17.4102C17.9 17.2102 17.81 17.0202 17.72 16.8102C17.66 16.6902 17.52 16.6302 17.4 16.6902C17.28 16.7502 17.22 16.8902 17.28 17.0102C17.51 17.5202 17.75 18.0102 18.01 18.4602C18.02 18.4802 18.03 18.5102 18.05 18.5302C18.09 18.6102 18.18 18.6502 18.26 18.6502Z" fill="#272525"/>
<path d="M8.92001 10.0202C8.92001 10.0202 8.94001 10.0202 8.95001 10.0202C9.07001 10.0202 9.18002 9.93021 9.19002 9.81021C9.21002 9.68021 9.11001 9.55021 8.98001 9.53021C8.76001 9.50021 8.54001 9.48024 8.31001 9.46024C8.20001 9.46024 8.09001 9.44022 7.98001 9.44022C7.74001 9.43022 7.51002 9.41022 7.27002 9.41022C7.14002 9.41022 7.03002 9.52024 7.02002 9.65024C7.02002 9.78024 7.13001 9.90024 7.26001 9.90024C7.50001 9.90024 7.74001 9.91024 7.98001 9.93024C8.09001 9.93024 8.20001 9.95024 8.31001 9.96024C8.51001 9.98024 8.72002 10.0002 8.91002 10.0202H8.92001Z" fill="#272525"/>
<path d="M29.9499 19.3802C29.9499 19.3802 30.0399 19.4202 30.0799 19.4202C30.1099 19.4202 30.1299 19.4102 30.1599 19.4002C30.2099 19.3802 30.2499 19.3602 30.2799 19.3102C30.4299 19.0802 30.5699 18.8402 30.7099 18.6002C30.7799 18.4802 30.7399 18.3302 30.6199 18.2702C30.4999 18.2002 30.3499 18.2402 30.2899 18.3602C30.2499 18.4302 30.1999 18.5002 30.1599 18.5702C30.0699 18.7302 29.9699 18.8902 29.8699 19.0402C29.7999 19.1502 29.8299 19.3102 29.9399 19.3802H29.9499Z" fill="#272525"/>
<path d="M10.17 0.070229C10.02 -0.019771 9.84 -0.01976 9.69 0.05024L0.259995 4.96024C0.0999945 5.04024 0 5.21024 0 5.39024V32.5002C0 32.6702 0.0900055 32.8302 0.240005 32.9202C0.320005 32.9702 0.410005 32.9902 0.490005 32.9902C0.570005 32.9902 0.640001 32.9702 0.720001 32.9302L10.15 28.0202C10.31 27.9402 10.41 27.7702 10.41 27.5902V10.2402C10.41 10.2402 10.49 10.3202 10.54 10.3402C11.05 10.4802 11.54 10.6702 12.01 10.8802V28.0002C12.01 28.1802 12.11 28.3502 12.27 28.4302L21.7 33.3402C21.77 33.3802 21.85 33.4002 21.93 33.4002C22.02 33.4002 22.11 33.3802 22.18 33.3302C22.33 33.2402 22.42 33.0802 22.42 32.9102V22.8102C22.63 22.9002 22.85 22.9702 23.06 23.0302C23.08 23.0302 23.1 23.0302 23.12 23.0302C23.23 23.0302 23.33 22.9602 23.36 22.8502C23.4 22.7202 23.32 22.5902 23.19 22.5502C22.93 22.4802 22.67 22.3902 22.42 22.2702V5.79023C22.42 5.61023 22.32 5.44024 22.16 5.36024L12.73 0.450234C12.58 0.370234 12.4 0.380223 12.25 0.470223C12.1 0.560223 12.01 0.720236 12.01 0.890236V10.3602C11.58 10.1802 11.13 10.0102 10.67 9.88023C10.56 9.85023 10.46 9.90023 10.4 9.98023V0.490242C10.4 0.320242 10.31 0.160229 10.16 0.070229H10.17ZM9.43001 27.3002L8.33 27.8702L8 28.0402L6.41 28.8702L6.08 29.0402L4.55 29.8402L4.35001 29.9502L2.72 30.8002L2.54001 30.8902L0.979996 31.7002V5.69022L4.27 3.98023L4.41 3.91023L9.43001 1.29023V27.3002ZM12.99 1.69022L14.26 2.35023L14.59 2.52024L16.18 3.35023L16.51 3.52024L18.03 4.31022L18.36 4.48023L21.45 6.09022V21.9302C21.45 21.9302 21.41 21.9602 21.4 21.9902C21.34 22.0902 21.36 22.2302 21.45 22.3002V32.1002L20.18 31.4402L19.85 31.2702L18.35 30.4902L18.02 30.3202L16.5 29.5302L16.17 29.3602L14.58 28.5302L14.25 28.3602L12.98 27.7002V1.69022H12.99Z" fill="#272525"/>
<path d="M23.91 5.40025V32.5102C23.91 32.6802 24 32.8402 24.15 32.9302C24.23 32.9802 24.32 33.0002 24.4 33.0002C24.48 33.0002 24.56 32.9802 24.63 32.9402L30.02 30.1402L30.13 30.0802L31.79 29.2102L32.08 29.0602L34.06 28.0302C34.22 27.9502 34.32 27.7802 34.32 27.6002V0.490242C34.32 0.320242 34.23 0.160229 34.08 0.070229C33.93 -0.019771 33.75 -0.01976 33.6 0.05024L24.17 4.96024C24.01 5.04024 23.91 5.21024 23.91 5.39024V5.40025ZM33.34 27.3102L32.07 27.9702L31.74 28.1402L30.15 28.9702L29.82 29.1402L28.3 29.9302L27.97 30.1002L26.47 30.8802L26.14 31.0502L24.87 31.7102V23.1902C25.3 23.1502 25.72 23.0502 26.14 22.9102C26.25 22.8702 26.36 22.8302 26.47 22.7902C26.47 22.7902 26.48 22.7902 26.49 22.7902C26.61 22.7402 26.67 22.5902 26.62 22.4702C26.59 22.4002 26.54 22.3602 26.47 22.3402C26.42 22.3202 26.36 22.3202 26.3 22.3402C26.25 22.3602 26.2 22.3802 26.15 22.4002C25.73 22.5602 25.31 22.6702 24.88 22.7102V5.71024L26.15 5.05024L26.41 4.92024L27.98 4.10023L28.31 3.93024L29.83 3.14024L30.16 2.97022L31.75 2.14024L32.08 1.97022L33.35 1.31022V27.3202L33.34 27.3102Z" fill="#272525"/>
</svg>
