<svg width="40" height="40" viewBox="0 0 40 40" fill="none" xmlns="http://www.w3.org/2000/svg">
<path d="M16.15 10.8335H23.85C26.7833 10.8335 29.1667 13.2168 29.1667 16.1502V23.8502C29.1667 25.2602 28.6065 26.6125 27.6095 27.6096C26.6124 28.6067 25.2601 29.1668 23.85 29.1668H16.15C13.2167 29.1668 10.8333 26.7835 10.8333 23.8502V16.1502C10.8333 14.7401 11.3935 13.3878 12.3906 12.3907C13.3876 11.3936 14.7399 10.8335 16.15 10.8335ZM15.9667 12.6668C15.0915 12.6668 14.2521 13.0145 13.6332 13.6334C13.0144 14.2522 12.6667 15.0916 12.6667 15.9668V24.0335C12.6667 25.8577 14.1425 27.3335 15.9667 27.3335H24.0333C24.9086 27.3335 25.7479 26.9858 26.3668 26.3669C26.9857 25.7481 27.3333 24.9087 27.3333 24.0335V15.9668C27.3333 14.1427 25.8575 12.6668 24.0333 12.6668H15.9667ZM24.8125 14.0418C25.1164 14.0418 25.4079 14.1626 25.6227 14.3774C25.8376 14.5923 25.9583 14.8838 25.9583 15.1877C25.9583 15.4916 25.8376 15.783 25.6227 15.9979C25.4079 16.2128 25.1164 16.3335 24.8125 16.3335C24.5086 16.3335 24.2172 16.2128 24.0023 15.9979C23.7874 15.783 23.6667 15.4916 23.6667 15.1877C23.6667 14.8838 23.7874 14.5923 24.0023 14.3774C24.2172 14.1626 24.5086 14.0418 24.8125 14.0418ZM20 15.4168C21.2156 15.4168 22.3814 15.8997 23.2409 16.7593C24.1005 17.6188 24.5833 18.7846 24.5833 20.0002C24.5833 21.2157 24.1005 22.3815 23.2409 23.2411C22.3814 24.1006 21.2156 24.5835 20 24.5835C18.7844 24.5835 17.6186 24.1006 16.7591 23.2411C15.8996 22.3815 15.4167 21.2157 15.4167 20.0002C15.4167 18.7846 15.8996 17.6188 16.7591 16.7593C17.6186 15.8997 18.7844 15.4168 20 15.4168ZM20 17.2502C19.2707 17.2502 18.5712 17.5399 18.0555 18.0556C17.5397 18.5713 17.25 19.2708 17.25 20.0002C17.25 20.7295 17.5397 21.429 18.0555 21.9447C18.5712 22.4604 19.2707 22.7502 20 22.7502C20.7294 22.7502 21.4288 22.4604 21.9446 21.9447C22.4603 21.429 22.75 20.7295 22.75 20.0002C22.75 19.2708 22.4603 18.5713 21.9446 18.0556C21.4288 17.5399 20.7294 17.2502 20 17.2502Z" fill="white"/>
<rect x="0.5" y="0.5" width="39" height="39" rx="19.5" stroke="white"/>
</svg>
