<svg width="39" height="32" viewBox="0 0 39 32" fill="none" xmlns="http://www.w3.org/2000/svg">
<path d="M17.51 0C17.06 0 16.7 0.360007 16.7 0.820007V31.04C16.7 31.49 17.06 31.86 17.51 31.86H20.87C21.32 31.86 21.69 31.49 21.69 31.04V0.820007C21.69 0.370007 21.32 0 20.87 0H17.51ZM20.0599 30.22H18.33V1.63H20.0599V30.22Z" fill="#272525"/>
<path d="M35.27 18.44L38.12 15.91C38.29 15.76 38.39 15.53 38.39 15.3C38.39 15.07 38.29 14.84 38.12 14.69L35.27 12.16C35.12 12.03 34.93 11.95 34.73 11.95H23.32C22.87 11.95 22.5 12.31 22.5 12.77V17.82C22.5 18.27 22.86 18.64 23.32 18.64H34.73C34.93 18.64 35.12 18.57 35.27 18.43V18.44ZM24.13 13.59H34.42L36.35 15.3L34.42 17.01H24.13V13.59Z" fill="#272525"/>
<path d="M23.32 3.69C22.87 3.69 22.5 4.06001 22.5 4.51001V9.56C22.5 10.01 22.86 10.37 23.32 10.37H34.73C34.93 10.37 35.12 10.3 35.27 10.17L38.12 7.64001C38.29 7.49001 38.39 7.26003 38.39 7.03003C38.39 6.80003 38.29 6.57004 38.12 6.42004L35.27 3.89001C35.12 3.76001 34.93 3.67999 34.73 3.67999H23.32V3.69ZM24.14 8.73999V5.32001H34.43L36.36 7.03003L34.43 8.73999H24.14Z" fill="#272525"/>
<path d="M3.12 10.17C3.27 10.3 3.46 10.37 3.66 10.37H15.07C15.52 10.37 15.89 10.01 15.89 9.56V4.51001C15.89 4.06001 15.52 3.69 15.07 3.69H3.66C3.46 3.69 3.27 3.76002 3.12 3.90002L0.27 6.42999C0.1 6.57999 0 6.81004 0 7.04004C0 7.27004 0.1 7.50002 0.27 7.65002L3.12 10.18V10.17ZM14.26 5.32001V8.73999H3.97L2.04 7.03003L3.97 5.32001H14.26Z" fill="#272525"/>
</svg>
