<svg width="31" height="26" viewBox="0 0 31 26" fill="none" xmlns="http://www.w3.org/2000/svg">
<g clip-path="url(#clip0_309_4)">
<path d="M19.64 0H11.3711C9.23974 0 7.49892 1.73853 7.49892 3.86712V4.75868H3.0576C1.37257 4.75868 0 6.12945 0 7.81226V22.9353C0 24.6181 1.37257 25.9889 3.0576 25.9889H27.9424C29.6274 25.9889 31 24.6181 31 22.9353V7.8234C31 6.14059 29.6274 4.76982 27.9424 4.76982H23.5011V3.87827C23.5011 1.74968 21.7603 0.0111444 19.6289 0.0111444L19.64 0ZM12.554 24.6627H11.6836V5.70596H12.554V24.6738V24.6627ZM17.8211 24.6627H13.1789V5.70596H17.8211V24.6738V24.6627ZM19.3276 24.6627H18.446V5.70596H19.3276V24.6738V24.6627ZM19.8186 4.75868H11.1926V3.86712C11.1926 3.76682 11.2707 3.68881 11.3711 3.68881H19.64C19.7405 3.68881 19.8186 3.76682 19.8186 3.86712V4.75868ZM27.9424 6.018C28.9356 6.018 29.7502 6.83155 29.7502 7.8234V22.9464C29.7502 23.9383 28.9356 24.7518 27.9424 24.7518H19.9525V6.018H20.4435C20.7894 6.018 21.0684 5.73939 21.0684 5.39391V3.86712C21.0684 3.07587 20.4212 2.42949 19.6289 2.42949H11.36C10.5677 2.42949 9.92045 3.07587 9.92045 3.86712V5.39391C9.92045 5.73939 10.1994 6.018 10.5454 6.018H11.0364V24.7518H3.0576C2.06443 24.7518 1.24982 23.9383 1.24982 22.9464V7.8234C1.24982 6.83155 2.06443 6.018 3.0576 6.018H8.12383C8.46976 6.018 8.74874 5.73939 8.74874 5.39391V3.86712C8.74874 2.42949 9.92045 1.25932 11.36 1.25932H19.6289C21.0684 1.25932 22.2401 2.42949 22.2401 3.86712V5.39391C22.2401 5.73939 22.5191 6.018 22.865 6.018H27.9312H27.9424Z" fill="#272525"/>
</g>
<defs>
<clipPath id="clip0_309_4">
<rect width="31" height="26" fill="white"/>
</clipPath>
</defs>
</svg>
