<svg width="40" height="34" viewBox="0 0 40 34" fill="none" xmlns="http://www.w3.org/2000/svg">
<g clip-path="url(#clip0_309_15)">
<path d="M21.3801 21.04V23.78C21.4801 23.73 21.5801 23.69 21.6701 23.63C22.1901 23.32 22.4501 22.87 22.4501 22.3C22.4501 21.69 22.0901 21.27 21.3701 21.04H21.3801Z" fill="#272525"/>
<path d="M36 6.15999H30.15V4.87999C30.15 2.18999 27.96 -0.0100098 25.26 -0.0100098H14.57C11.88 -0.0100098 9.69 2.17999 9.69 4.87999V6.15999H3.84C1.72 6.15999 0 7.87999 0 9.99999V29.58C0 31.7 1.72 33.42 3.84 33.42H36C38.12 33.42 39.84 31.7 39.84 29.58V9.99999C39.84 7.87999 38.12 6.15999 36 6.15999ZM38.45 29.58C38.45 30.93 37.35 32.03 36 32.03H3.84C2.49 32.03 1.39 30.93 1.39 29.58V9.99999C1.39 8.64999 2.49 7.54999 3.84 7.54999H10.39C10.77 7.54999 11.08 7.23999 11.08 6.85999V4.88999C11.08 2.95999 12.65 1.38999 14.58 1.38999H25.27C27.2 1.38999 28.77 2.95999 28.77 4.88999V6.85999C28.77 7.23999 29.08 7.54999 29.46 7.54999H36.01C37.36 7.54999 38.46 8.64999 38.46 9.99999V29.58H38.45Z" fill="#272525"/>
<path d="M25.2701 3.15002H14.5801C13.6201 3.15002 12.8401 3.93002 12.8401 4.89002V6.86002C12.8401 7.24002 13.1501 7.55002 13.5301 7.55002H16.1801C16.1801 7.55002 16.2001 7.55002 16.2201 7.55002H16.7501C16.7501 7.55002 16.7701 7.55002 16.7901 7.55002H17.6401C17.6401 7.55002 17.6601 7.55002 17.6801 7.55002H22.1701C22.1701 7.55002 22.1901 7.55002 22.2101 7.55002H23.0601C23.0601 7.55002 23.0801 7.55002 23.1001 7.55002H23.6301C23.6301 7.55002 23.6501 7.55002 23.6701 7.55002H26.3201C26.7001 7.55002 27.0101 7.24002 27.0101 6.86002V4.89002C27.0101 3.93002 26.2301 3.15002 25.2701 3.15002ZM25.6201 6.17002H23.6201C23.6201 6.17002 23.6001 6.17002 23.5801 6.17002H23.1201C23.1201 6.17002 23.1001 6.17002 23.0801 6.17002H22.1601C22.1601 6.17002 22.1401 6.17002 22.1201 6.17002H17.7001C17.7001 6.17002 17.6801 6.17002 17.6601 6.17002H16.7401C16.7401 6.17002 16.7201 6.17002 16.7001 6.17002H16.2401C16.2401 6.17002 16.2201 6.17002 16.2001 6.17002H14.2001V4.89002C14.2001 4.70002 14.3601 4.54002 14.5501 4.54002H25.2401C25.4301 4.54002 25.5901 4.70002 25.5901 4.89002V6.17002H25.6201Z" fill="#272525"/>
<path d="M22.0701 17.53V16.91C22.3201 17.06 22.6001 17.13 22.9001 17.13C23.2301 17.13 23.5701 16.97 23.6601 16.92C23.6701 16.92 23.6801 16.91 23.6901 16.9C23.6901 16.9 23.7101 16.89 23.7201 16.88L25.2101 15.95C25.6101 15.7 25.8401 15.32 25.8401 14.88C25.8401 14.53 25.7101 14.22 25.4501 13.96C24.5501 12.94 23.4101 12.26 22.0601 11.92V11.07C22.0601 10.29 21.4201 9.65002 20.6401 9.65002H19.3101C18.5301 9.65002 17.8901 10.29 17.8901 11.07V11.86C17.3601 11.97 16.8801 12.13 16.4301 12.33C13.8701 13.5 13.3701 15.31 13.3901 16.62C13.4101 17.56 13.7001 18.41 14.2401 19.13C15.0301 20.19 16.2601 20.91 17.8801 21.26V22.67C17.5701 22.45 17.2601 22.19 16.9701 21.87C16.7001 21.53 16.3001 21.34 15.8601 21.34C15.6301 21.34 15.3701 21.43 15.1901 21.51C15.1901 21.51 15.1701 21.51 15.1601 21.52C15.1401 21.52 15.1201 21.54 15.1101 21.55L13.7601 22.34C13.3101 22.6 13.0601 23.01 13.0701 23.48C13.0701 23.78 13.1801 24.05 13.3801 24.29C13.7701 24.83 14.2901 25.35 14.9201 25.82C15.8101 26.5 16.8001 26.97 17.8901 27.23V27.89C17.8901 28.67 18.5301 29.31 19.3101 29.31H20.6401C21.4201 29.31 22.0601 28.67 22.0601 27.89V27.23C22.9801 27.03 23.8101 26.69 24.5201 26.22C25.9601 25.27 26.7001 23.94 26.7301 22.27C26.7501 21.2 26.4501 20.28 25.8201 19.52C24.9701 18.51 23.7001 17.83 22.0501 17.5L22.0701 17.53ZM23.7701 25.09C23.0801 25.54 22.2401 25.85 21.2701 25.99C20.9301 26.04 20.6801 26.33 20.6801 26.68V27.92C20.6801 27.92 20.6701 27.95 20.6501 27.95H19.3201C19.3201 27.95 19.2901 27.94 19.2901 27.92V26.69C19.2901 26.35 19.0401 26.06 18.7101 26.01C17.6201 25.84 16.6401 25.42 15.7801 24.75C15.2701 24.36 14.8501 23.95 14.5401 23.53L15.7901 22.8C15.7901 22.8 15.8701 22.77 15.9001 22.76H15.9201C15.9301 22.78 15.9501 22.79 15.9601 22.81C16.7001 23.61 17.5101 24.18 18.3701 24.48C18.5801 24.56 18.8201 24.52 19.0001 24.39C19.1801 24.26 19.2901 24.05 19.2901 23.82V20.7C19.2901 20.36 19.0401 20.07 18.7001 20.01C17.1501 19.77 16.0301 19.2 15.3701 18.31C14.9901 17.81 14.8101 17.26 14.7901 16.6C14.7701 15.27 15.4901 14.29 17.0201 13.59C17.5101 13.37 18.0701 13.21 18.6901 13.12C19.0301 13.07 19.2901 12.78 19.2901 12.43V11.06C19.2901 11.06 19.3001 11.03 19.3201 11.03H20.6501C20.6501 11.03 20.6801 11.04 20.6801 11.06V12.47C20.6801 12.81 20.9201 13.09 21.2501 13.15C22.5301 13.37 23.5601 13.92 24.3801 14.82L23.0201 15.67C23.0201 15.67 22.9101 15.71 22.9001 15.72C22.8301 15.72 22.7801 15.7 22.7301 15.66C22.4001 15.37 22.0401 15.14 21.6701 14.96C21.4601 14.86 21.2001 14.87 21.0001 15C20.8001 15.13 20.6801 15.35 20.6801 15.59V18.09C20.6801 18.44 20.9301 18.73 21.2801 18.78C22.8801 19 24.0501 19.55 24.7701 20.41C25.1801 20.91 25.3701 21.51 25.3601 22.24C25.3401 23.45 24.8201 24.37 23.7701 25.06V25.09Z" fill="#272525"/>
<path d="M17.73 16.64C17.73 17.17 18.03 17.55 18.61 17.77V15.55C18.61 15.55 18.54 15.57 18.51 15.59C17.99 15.84 17.73 16.19 17.74 16.63L17.73 16.64Z" fill="#272525"/>
</g>
<defs>
<clipPath id="clip0_309_15">
<rect width="39.84" height="33.42" fill="white"/>
</clipPath>
</defs>
</svg>
