<svg width="30" height="28" viewBox="0 0 30 28" fill="none" xmlns="http://www.w3.org/2000/svg">
<path d="M25.87 0H4.04001C1.81001 0 0 1.81004 0 4.04004V18.03C0 20.26 1.81001 22.07 4.04001 22.07H18.24L25.56 26.98C25.69 27.07 25.84 27.11 26 27.11C26.13 27.11 26.25 27.08 26.37 27.02C26.62 26.88 26.78 26.62 26.78 26.33V21.6801C28.2 21.0801 29.92 19.77 29.92 18.03V4.04004C29.92 1.81004 28.11 0 25.88 0H25.87ZM28.35 18.03C28.35 18.95 26.98 20.01 25.76 20.4C25.43 20.5 25.21 20.8 25.21 21.14V24.8701L18.91 20.64C18.78 20.55 18.63 20.51 18.48 20.51H4.04001C2.67001 20.51 1.56 19.4 1.56 18.03V4.04004C1.56 2.67004 2.67001 1.56 4.04001 1.56H25.87C27.24 1.56 28.35 2.67004 28.35 4.04004V18.03Z" fill="#272525"/>
<path d="M24.14 5.20001H5.73001C4.92001 5.20001 4.26001 5.86004 4.26001 6.67004C4.26001 7.48004 4.92001 8.14001 5.73001 8.14001H24.14C24.95 8.14001 25.61 7.48004 25.61 6.67004C25.61 5.86004 24.95 5.20001 24.14 5.20001ZM24.14 7.20001H5.73001C5.44001 7.20001 5.20001 6.96004 5.20001 6.67004C5.20001 6.38004 5.44001 6.14001 5.73001 6.14001H24.14C24.43 6.14001 24.67 6.38004 24.67 6.67004C24.67 6.96004 24.43 7.20001 24.14 7.20001Z" fill="#272525"/>
<path d="M24.14 9.51001H5.73001C4.92001 9.51001 4.26001 10.17 4.26001 10.98C4.26001 11.79 4.92001 12.45 5.73001 12.45H24.14C24.95 12.45 25.61 11.79 25.61 10.98C25.61 10.17 24.95 9.51001 24.14 9.51001ZM24.14 11.51H5.73001C5.44001 11.51 5.20001 11.27 5.20001 10.98C5.20001 10.69 5.44001 10.45 5.73001 10.45H24.14C24.43 10.45 24.67 10.69 24.67 10.98C24.67 11.27 24.43 11.51 24.14 11.51Z" fill="#272525"/>
<path d="M24.14 13.66H5.73001C4.92001 13.66 4.26001 14.32 4.26001 15.13C4.26001 15.94 4.92001 16.6 5.73001 16.6H24.14C24.95 16.6 25.61 15.94 25.61 15.13C25.61 14.32 24.95 13.66 24.14 13.66ZM24.14 15.66H5.73001C5.44001 15.66 5.20001 15.42 5.20001 15.13C5.20001 14.84 5.44001 14.6 5.73001 14.6H24.14C24.43 14.6 24.67 14.84 24.67 15.13C24.67 15.42 24.43 15.66 24.14 15.66Z" fill="#272525"/>
</svg>
