<svg width="27" height="32" viewBox="0 0 27 32" fill="none" xmlns="http://www.w3.org/2000/svg">
<path d="M19.05 31.52C19.2 31.52 19.34 31.46 19.46 31.36L25.79 25.39C25.91 25.28 25.97 25.12 25.97 24.96C26.03 24.86 26.07 24.73 26.07 24.6V2.5C26.07 1.12 24.95 0 23.57 0H2.5C1.12 0 0 1.12 0 2.5V29.17C0 30.55 1.12 31.67 2.5 31.67H18.61C18.78 31.67 18.93 31.61 19.05 31.51V31.52ZM19.64 29.56V27.27C19.64 26.32 20.41 25.55 21.35 25.55H23.89L19.64 29.56ZM17.91 30.3H2.5C1.89 30.3 1.39001 29.8 1.39001 29.19V2.51999C1.39001 1.90999 1.89 1.41 2.5 1.41H23.57C24.18 1.41 24.68 1.90999 24.68 2.51999V23.93H21.44C19.49 23.93 17.91 25.51 17.91 27.46V30.31V30.3Z" fill="#272525"/>
<path d="M5.39996 9.22998H20.67C21.05 9.22998 21.36 8.92001 21.36 8.54001V7.29999C21.36 6.91999 21.05 6.60999 20.67 6.60999H5.39996C5.01996 6.60999 4.70996 6.91999 4.70996 7.29999V8.54001C4.70996 8.92001 5.01996 9.22998 5.39996 9.22998ZM5.53998 7.42999H20.53V8.38998H5.53998V7.42999Z" fill="#272525"/>
<path d="M5.39996 13.57H20.67C21.05 13.57 21.36 13.26 21.36 12.88V11.64C21.36 11.26 21.05 10.95 20.67 10.95H5.39996C5.01996 10.95 4.70996 11.26 4.70996 11.64V12.88C4.70996 13.26 5.01996 13.57 5.39996 13.57ZM5.53998 11.77H20.53V12.7299H5.53998V11.77Z" fill="#272525"/>
<path d="M21.36 17.23V15.99C21.36 15.61 21.05 15.3 20.67 15.3H5.39996C5.01996 15.3 4.70996 15.61 4.70996 15.99V17.23C4.70996 17.61 5.01996 17.92 5.39996 17.92H20.67C21.05 17.92 21.36 17.61 21.36 17.23ZM20.53 17.09H5.53998V16.13H20.53V17.09Z" fill="#272525"/>
</svg>
