<svg width="40" height="40" viewBox="0 0 40 40" fill="none" xmlns="http://www.w3.org/2000/svg">
<g clip-path="url(#clip0_279_35)">
<path d="M32.3888 17.2222C32.7052 15.8646 33.7118 14.5062 33.7118 14.5062H29.1986C26.6631 12.8668 23.5901 12.002 20.1806 12.002C16.6478 12.002 13.4576 12.8803 10.939 14.5332H6.71262C6.71262 14.5332 7.70487 15.8689 8.02549 17.2172C7.20452 18.3512 6.71262 19.718 6.71262 21.2208C6.71262 24.9468 9.74927 27.98 13.4753 27.98C15.6074 27.98 17.4957 26.9819 18.7445 25.4446L20.1763 27.5978L21.631 25.4176C22.2867 26.2615 23.1369 26.9343 24.1091 27.3785C25.7485 28.121 27.5895 28.2045 29.277 27.5801C32.771 26.2841 34.5589 22.3818 33.2764 18.8886C33.0558 18.2904 32.7491 17.7276 32.366 17.218L32.3888 17.2222ZM28.8197 26.3052C28.1556 26.554 27.4486 26.6678 26.74 26.6399C26.0314 26.6121 25.3355 26.4433 24.6929 26.1432C23.779 25.7194 23.0035 25.0458 22.4561 24.2C22.2266 23.8625 22.0343 23.4972 21.8891 23.1065C21.7212 22.6619 21.6428 22.2054 21.5989 21.7397C21.5154 20.804 21.647 19.859 22.0511 18.9798C22.3481 18.3345 22.7696 17.7543 23.2915 17.2724C23.8133 16.7906 24.4252 16.4165 25.092 16.1718C27.8924 15.1432 30.9983 16.5801 32.0268 19.3704C33.0596 22.1615 31.6226 25.2691 28.8366 26.3018H28.8197V26.3052ZM17.9438 24.2414C17.4495 24.9723 16.7837 25.5711 16.0046 25.9855C15.2255 26.3998 14.3568 26.617 13.4744 26.6182C10.5002 26.6182 8.07358 24.1925 8.07358 21.2216C8.07358 18.2508 10.5002 15.8208 13.4744 15.8208C16.4503 15.8208 18.8711 18.2508 18.8711 21.2216C18.8711 21.4064 18.8407 21.5726 18.8179 21.7616C18.7259 22.672 18.4357 23.5335 17.9438 24.2583V24.2414ZM10.0412 21.1507C10.0412 22.9969 11.5439 24.4911 13.3858 24.4911C15.2277 24.4911 16.7262 22.9969 16.7262 21.1507C16.7262 20.2648 16.3743 19.4152 15.7479 18.7887C15.1214 18.1623 14.2718 17.8103 13.3858 17.8103C12.4999 17.8103 11.6503 18.1623 11.0238 18.7887C10.3974 19.4152 10.0454 20.2648 10.0454 21.1507H10.0412ZM23.5986 21.1507C23.5979 21.8112 23.7932 22.4569 24.1597 23.0063C24.5261 23.5557 25.0473 23.9841 25.6574 24.2372C26.2674 24.4903 26.9387 24.5567 27.5865 24.4281C28.2343 24.2995 28.8293 23.9816 29.2964 23.5146C29.7634 23.0477 30.0815 22.4527 30.2103 21.805C30.339 21.1572 30.2728 20.4859 30.0198 19.8758C29.7669 19.2657 29.3387 18.7444 28.7894 18.3778C28.2401 18.0112 27.5943 17.8157 26.9339 17.8162C26.0493 17.8171 25.2011 18.1685 24.575 18.7935C23.9489 19.4185 23.596 20.2661 23.5935 21.1507H23.5986ZM11.198 21.1507C11.1982 20.572 11.4276 20.0169 11.8361 19.6069C12.2445 19.1969 12.7987 18.9653 13.3774 18.9629C14.573 18.9629 15.5703 19.9475 15.5703 21.1507C15.5703 21.7329 15.339 22.2912 14.9274 22.7028C14.5158 23.1145 13.9574 23.3457 13.3753 23.3457C12.7931 23.3457 12.2348 23.1145 11.8232 22.7028C11.4115 22.2912 11.1803 21.7329 11.1803 21.1507H11.198ZM24.7376 21.1507C24.7376 20.5705 24.9682 20.014 25.3785 19.6037C25.7888 19.1934 26.3452 18.9629 26.9255 18.9629C27.4991 18.9757 28.0449 19.213 28.4454 19.6238C28.846 20.0346 29.0695 20.5861 29.0678 21.1599C29.0662 21.7337 28.8395 22.2839 28.4366 22.6924C28.0336 23.1009 27.4865 23.335 26.9128 23.3445C26.6247 23.3448 26.3392 23.2883 26.0729 23.1782C25.8066 23.068 25.5647 22.9065 25.3609 22.7027C25.1571 22.4989 24.9955 22.2569 24.8854 21.9906C24.7753 21.7243 24.7188 21.4389 24.7191 21.1507H24.7376ZM20.1755 13.1832C22.6055 13.1832 24.7992 13.6186 26.7238 14.4893C25.9916 14.5087 25.2672 14.6451 24.5782 14.8935C23.7427 15.1965 22.9763 15.6636 22.3242 16.2675C21.6721 16.8713 21.1475 17.5996 20.7813 18.4094C20.4303 19.1519 20.2455 19.9383 20.1746 20.7339C20.0501 19.052 19.3028 17.4769 18.0789 16.3166C16.855 15.1562 15.2425 14.4938 13.5563 14.459C15.4809 13.6329 17.7143 13.184 20.1266 13.184L20.1755 13.1832Z" fill="white"/>
</g>
<rect x="0.5" y="0.5" width="39" height="39" rx="19.5" stroke="white"/>
<defs>
<clipPath id="clip0_279_35">
<rect width="27" height="27" fill="white" transform="translate(6.5 6.5)"/>
</clipPath>
</defs>
</svg>
