<svg width="40" height="40" viewBox="0 0 40 40" fill="none" xmlns="http://www.w3.org/2000/svg">
<g clip-path="url(#clip0_279_33)">
<path d="M29.304 11.9998L29.9707 11.9558C29.962 11.825 29.9149 11.6995 29.8353 11.5953C29.7557 11.491 29.6472 11.4126 29.5232 11.3697C29.3992 11.3269 29.2654 11.3216 29.1384 11.3544C29.0114 11.3873 28.8969 11.4569 28.8093 11.5545L29.304 11.9998ZM28.64 15.9452C28.64 15.7684 28.5698 15.5988 28.4447 15.4738C28.3197 15.3487 28.1501 15.2785 27.9733 15.2785C27.7965 15.2785 27.6269 15.3487 27.5019 15.4738C27.3769 15.5988 27.3067 15.7684 27.3067 15.9452H28.64ZM10.6667 26.6665V25.9998C10.5235 25.9997 10.3841 26.0456 10.2691 26.1308C10.154 26.216 10.0695 26.3359 10.0279 26.4729C9.98634 26.6099 9.98996 26.7566 10.0382 26.8914C10.0865 27.0261 10.1769 27.1418 10.296 27.2212L10.6667 26.6665ZM11.9973 11.9998L12.6227 11.7665C12.5772 11.6448 12.4972 11.539 12.3924 11.4621C12.2877 11.3853 12.1627 11.3407 12.033 11.3339C11.9032 11.3271 11.7743 11.3584 11.6621 11.4239C11.5499 11.4894 11.4592 11.5862 11.4013 11.7025L11.9973 11.9998ZM17.3227 23.9998L17.7947 24.4705C17.8747 24.3902 17.933 24.2907 17.9639 24.1816C17.9948 24.0725 17.9974 23.9573 17.9714 23.8469C17.9453 23.7364 17.8916 23.6345 17.8152 23.5507C17.7387 23.4669 17.6422 23.4039 17.5347 23.3678L17.3227 23.9998ZM26.9547 13.2972L26.4613 13.7452L26.7013 14.0105L27.0547 13.9572L26.9547 13.2972ZM28.64 12.0438C28.708 13.0812 28.644 13.7105 28.476 14.1852C28.3133 14.6452 28.028 15.0238 27.512 15.5185L28.4347 16.4812C29.0187 15.9212 29.4693 15.3718 29.7333 14.6305C29.9907 13.9025 30.044 13.0598 29.9707 11.9558L28.64 12.0438ZM28.64 16.9158V15.9452H27.3067V16.9172H28.64V16.9158ZM19.32 16.0545V17.3332H20.6533V16.0545H19.32ZM19.32 17.3332V17.9998H20.6533V17.3332H19.32ZM24.0333 11.3332C23.4137 11.3335 22.8001 11.4559 22.2278 11.6934C21.6554 11.9308 21.1354 12.2787 20.6975 12.7171C20.2596 13.1555 19.9123 13.6759 19.6755 14.2485C19.4387 14.8212 19.317 15.4348 19.3173 16.0545H20.6507C20.6503 15.6098 20.7376 15.1694 20.9075 14.7585C21.0773 14.3475 21.3265 13.9741 21.6408 13.6595C21.955 13.3448 22.3282 13.0952 22.7389 12.9248C23.1497 12.7545 23.59 12.6667 24.0347 12.6665V11.3332H24.0333ZM27.3053 16.9158C27.3067 22.6705 22.6493 27.3332 16.9067 27.3332V28.6665C23.3867 28.6665 28.64 23.4052 28.64 16.9158H27.3053ZM11.3733 12.2332C12.0987 14.1692 14.8187 17.9998 19.9867 17.9998V16.6665C15.5653 16.6665 13.228 13.3865 12.6213 11.7665L11.3733 12.2332ZM11.4013 11.7025C10.0053 14.4972 9.79066 17.2092 10.8053 19.5185C11.8173 21.8212 13.9947 23.5918 17.112 24.6318L17.5347 23.3678C14.6613 22.4078 12.844 20.8452 12.0253 18.9812C11.2093 17.1238 11.328 14.8345 12.5947 12.2972L11.4013 11.7025ZM16.8507 23.5292C16.048 24.3332 13.6347 25.9998 10.6667 25.9998V27.3332C14.088 27.3332 16.8227 25.4452 17.7947 24.4705L16.8507 23.5292ZM27.4493 12.8505C27.0183 12.3724 26.4915 11.9903 25.9033 11.7289C25.315 11.4675 24.6784 11.3327 24.0347 11.3332V12.6665C24.996 12.6665 25.8613 13.0812 26.4613 13.7452L27.4493 12.8505ZM27.0547 13.9572C28.1167 13.7837 29.0866 13.2497 29.8013 12.4452L28.8093 11.5545C28.301 12.1288 27.611 12.5114 26.8547 12.6385L27.0547 13.9572ZM10.296 27.2212C12.484 28.6798 14.7773 28.6665 16.9067 28.6665V27.3332C14.7333 27.3332 12.8427 27.3185 11.0373 26.1118L10.296 27.2212Z" fill="white"/>
</g>
<rect x="0.5" y="0.5" width="39" height="39" rx="19.5" stroke="white"/>
<defs>
<clipPath id="clip0_279_33">
<rect width="20" height="20" fill="white" transform="translate(10 10)"/>
</clipPath>
</defs>
</svg>
