<svg width="41" height="41" viewBox="0 0 41 41" fill="none" xmlns="http://www.w3.org/2000/svg">
<path d="M21.7119 18.6217L28.4124 11H26.8243L21.0078 17.6176L16.3599 11H11L18.0274 21.008L11 29H12.5881L18.7315 22.0109L23.6401 29H29L21.7119 18.6217ZM19.5375 21.0954L18.8255 20.099L13.1598 12.17H15.5989L20.1701 18.569L20.8821 19.5654L26.8256 27.884H24.3865L19.5375 21.0954Z" fill="white"/>
<path d="M40 20.5C40 9.73045 31.2696 1 20.5 1C9.73045 1 1 9.73045 1 20.5C1 31.2696 9.73045 40 20.5 40C31.2696 40 40 31.2696 40 20.5Z" stroke="white"/>
</svg>
