<svg width="41" height="40" viewBox="0 0 41 40" fill="none" xmlns="http://www.w3.org/2000/svg">
<path d="M18.5 23.0184L23.69 20.0002L18.5 16.9819V23.0184ZM30.06 15.1407C30.19 15.6136 30.28 16.2474 30.34 17.0523C30.41 17.8572 30.44 18.5514 30.44 19.1551L30.5 20.0002C30.5 22.2035 30.34 23.8233 30.06 24.8596C29.81 25.7651 29.23 26.3486 28.33 26.6001C27.86 26.7309 27 26.8215 25.68 26.8818C24.38 26.9523 23.19 26.9825 22.09 26.9825L20.5 27.0428C16.31 27.0428 13.7 26.8818 12.67 26.6001C11.77 26.3486 11.19 25.7651 10.94 24.8596C10.81 24.3867 10.72 23.7529 10.66 22.948C10.59 22.1431 10.56 21.4489 10.56 20.8453L10.5 20.0002C10.5 17.7968 10.66 16.177 10.94 15.1407C11.19 14.2353 11.77 13.6517 12.67 13.4002C13.14 13.2694 14 13.1789 15.32 13.1185C16.62 13.0481 17.81 13.0179 18.91 13.0179L20.5 12.9575C24.69 12.9575 27.3 13.1185 28.33 13.4002C29.23 13.6517 29.81 14.2353 30.06 15.1407Z" fill="white"/>
<rect x="1" y="0.5" width="39" height="39" rx="19.5" stroke="white"/>
</svg>
